<?xml version="1.0" standalone="no"?><svg xmlns="http://www.w3.org/2000/svg" viewBox="0 0 1440 320"><path fill="#00aeff" fill-opacity="1" d="M0,128L18.5,160C36.9,192,74,256,111,277.3C147.7,299,185,277,222,224C258.5,171,295,85,332,53.3C369.2,21,406,43,443,58.7C480,75,517,85,554,112C590.8,139,628,181,665,170.7C701.5,160,738,96,775,96C812.3,96,849,160,886,170.7C923.1,181,960,139,997,128C1033.8,117,1071,139,1108,160C1144.6,181,1182,203,1218,192C1255.4,181,1292,139,1329,133.3C1366.2,128,1403,160,1422,176L1440,192L1440,320L1421.5,320C1403.1,320,1366,320,1329,320C1292.3,320,1255,320,1218,320C1181.5,320,1145,320,1108,320C1070.8,320,1034,320,997,320C960,320,923,320,886,320C849.2,320,812,320,775,320C738.5,320,702,320,665,320C627.7,320,591,320,554,320C516.9,320,480,320,443,320C406.2,320,369,320,332,320C295.4,320,258,320,222,320C184.6,320,148,320,111,320C73.8,320,37,320,18,320L0,320Z"></path></svg>